<svg xmlns="http://www.w3.org/2000/svg" width="64" height="64" viewBox="0 0 64 64"><path fill="#fff" d="M60.4 54.6H11l13.2-18 12.4 10.2c.8.8 2 1 3 .8s2-1 2.6-2l11-21.4 3.6 1.8c1 .4 2 .4 2.6 0 .4-.2.6-.6.8-.8.2-.4.4-1 .2-1.6L59.2 7.4c0-1-.6-1.8-1.4-2.2s-1.8-.2-2.6.4l-13.4 9.2c-.8.6-1.4 1.4-1.2 2.4 0 .8.6 1.6 1.6 2.2l4.4 2.2-8.8 17L26 28.4c-.8-.6-1.8-1-2.8-.8s-2 .6-2.6 1.4L7.4 47V4.8c0-2-1.6-3.6-3.6-3.6S0 2.8 0 4.8v54.4c0 .2 0 .2.2.4 0 .2 0 .2.2.4 0 .2.2.2.2.4s.2.2.2.2l.2.2c0 .2.2.2.4.2l.2.2s.2 0 .2.2c.2 0 .2.2.4.2h.2c.2 0 .2 0 .4.2h57.4c2 0 3.6-1.6 3.6-3.6s-1.4-3.6-3.4-3.6z"/></svg>