<svg xmlns="http://www.w3.org/2000/svg" width="64" height="64" viewBox="0 0 64 64"><path fill="#fff" d="M42.8 5.061A3.061 3.061 0 0 0 39.739 2H23.627a3.061 3.061 0 0 0-3.061 3.061v5.735h22.235V5.061z"/><path fill="#fff" d="M45.596 6.357h-.316v6.959H18.096V6.357h-.316a6.438 6.438 0 0 0-6.418 6.417v42.807A6.44 6.44 0 0 0 17.779 62h27.817a6.438 6.438 0 0 0 6.418-6.417V12.786a6.438 6.438 0 0 0-6.417-6.428zm-2.684 35.745H20.463V39.53h22.449v2.571zm0-8.561H20.463V30.99h22.449v2.551zm0-8.561H20.463v-2.572h22.449v2.572z"/></svg>