<svg xmlns="http://www.w3.org/2000/svg" width="64" height="64" viewBox="0 0 64 64"><path fill="#fff" d="M20.934 29.236v6.644h10.983c-.44 2.853-3.316 8.356-10.983 8.356-6.609 0-12.005-5.48-12.005-12.231s5.396-12.231 12.005-12.231c3.768 0 6.276 1.605 7.714 2.983l5.254-5.064c-3.376-3.15-7.75-5.064-12.968-5.064-10.71.012-19.363 8.665-19.363 19.375s8.653 19.363 19.363 19.363c11.173 0 18.59-7.857 18.59-18.923 0-1.272-.143-2.247-.309-3.209H20.934zm41.495-.558h-5.705v-5.705h-5.705v5.705h-5.705v5.705h5.705v5.705h5.705v-5.705h5.705z"/></svg>