<svg xmlns="http://www.w3.org/2000/svg" width="64" height="64" viewBox="0 0 64 64"><path fill="#fff" d="M12.8 0H3.6C1.6 0 0 1.6 0 3.6v9.2c0 2 1.6 3.6 3.6 3.6h9.2c2 0 3.6-1.6 3.6-3.6V3.6c0-2-1.6-3.6-3.6-3.6zm0 23.8H3.6c-2 0-3.6 1.6-3.6 3.6v9.2c0 2 1.6 3.6 3.6 3.6h9.2c2 0 3.6-1.6 3.6-3.6v-9.2c0-2-1.6-3.6-3.6-3.6zm0 23.8H3.6c-2 0-3.6 1.6-3.6 3.6v9.2c0 2 1.6 3.6 3.6 3.6h9.2c2 0 3.6-1.6 3.6-3.6v-9.2c0-2-1.6-3.6-3.6-3.6zM36.6 0h-9.2c-2 0-3.6 1.6-3.6 3.6v9.2c0 2 1.6 3.6 3.6 3.6h9.2c2 0 3.6-1.6 3.6-3.6V3.6c0-2-1.6-3.6-3.6-3.6zm0 23.8h-9.2c-2 0-3.6 1.6-3.6 3.6v9.2c0 2 1.6 3.6 3.6 3.6h9.2c2 0 3.6-1.6 3.6-3.6v-9.2c0-2-1.6-3.6-3.6-3.6zm0 23.8h-9.2c-2 0-3.6 1.6-3.6 3.6v9.2c0 2 1.6 3.6 3.6 3.6h9.2c2 0 3.6-1.6 3.6-3.6v-9.2c0-2-1.6-3.6-3.6-3.6zM60.4 0h-9.2c-2 0-3.6 1.6-3.6 3.6v9.2c0 2 1.6 3.6 3.6 3.6h9.2c2 0 3.6-1.6 3.6-3.6V3.6c0-2-1.6-3.6-3.6-3.6zm0 23.8h-9.2c-2 0-3.6 1.6-3.6 3.6v9.2c0 2 1.6 3.6 3.6 3.6h9.2c2 0 3.6-1.6 3.6-3.6v-9.2c0-2-1.6-3.6-3.6-3.6zm0 23.8h-9.2c-2 0-3.6 1.6-3.6 3.6v9.2c0 2 1.6 3.6 3.6 3.6h9.2c2 0 3.6-1.6 3.6-3.6v-9.2c0-2-1.6-3.6-3.6-3.6z"/></svg>