<svg xmlns="http://www.w3.org/2000/svg" width="64" height="64" viewBox="0 0 64 64"><path fill="#fff" d="M37.283 7.319a5.32 5.32 0 1 1-10.638 0 5.32 5.32 0 0 1 10.638 0zm-5.319 6.697c-5.863 0-11.228 3.291-11.228 9.339v13.152c-.002.031-.002.068-.002.104a2.318 2.318 0 0 0 2.317 2.318h.003a2.32 2.32 0 0 0 2.236-2.427V24.676a.394.394 0 0 1 .776-.003v34.66a2.665 2.665 0 1 0 5.33 0V38.951a.51.51 0 1 1 1.02 0v20.382a2.665 2.665 0 1 0 5.33 0V24.675c0-.44.788-.44.788 0v11.831c-.002.031-.002.068-.002.104a2.318 2.318 0 0 0 2.318 2.318h.004a2.318 2.318 0 0 0 2.315-2.427V23.354c.035-6.049-5.353-9.339-11.205-9.339z"/></svg>