<svg xmlns="http://www.w3.org/2000/svg" width="64" height="64" viewBox="0 0 64 64"><path fill="#fff" d="M37.443 7.501a5.501 5.501 0 1 1-11.002 0 5.501 5.501 0 0 1 11.002 0zm2.251 9.191a5.09 5.09 0 0 0-4.169-2.22h-7.163a5.101 5.101 0 0 0-4.16 2.203c-2.902 5.738-5.662 18.54-5.662 18.54a2.012 2.012 0 0 0 3.776 1.394l3.765-12.346v4.181L20.31 46.817h6.281v12.772a2.4 2.4 0 1 0 4.801 0V47.497a.56.56 0 1 1 1.11.003v12.099a2.4 2.4 0 1 0 4.8 0V46.817h6.281l-5.771-18.373v-4.191l3.741 12.332a2.017 2.017 0 0 0 1.89 1.322 2.012 2.012 0 0 0 1.885-2.717c-.082-.219-2.736-12.778-5.636-18.499z"/></svg>