<svg xmlns="http://www.w3.org/2000/svg" width="64" height="64" viewBox="0 0 64 64"><path fill="#fff" d="M38.214 32.651c0-3.242-2.65-5.881-5.907-5.881S26.4 29.408 26.4 32.651c0 3.243 2.65 5.881 5.907 5.881s5.907-2.638 5.907-5.881zM46.99 2.038H17.01c-8.26 0-14.98 6.691-14.98 14.915v4.156h22.043c2.326-1.65 5.167-2.624 8.234-2.624s5.908.975 8.234 2.624H61.97v-4.156c0-8.224-6.72-14.915-14.98-14.915zm6.067 14.186c0 .911-.749 1.657-1.664 1.657H46.25a1.665 1.665 0 0 1-1.664-1.657v-5.121c0-.911.749-1.657 1.664-1.657h5.143c.916 0 1.664.746 1.664 1.657v5.121zm-6.521 16.427c0 7.812-6.384 14.167-14.229 14.167s-14.229-6.355-14.229-14.167c0-2.151.487-4.19 1.352-6.019H2.03v20.414c0 8.224 6.72 14.915 14.98 14.915h29.98c8.26 0 14.98-6.69 14.98-14.915V26.632H45.184a14.036 14.036 0 0 1 1.352 6.019z"/></svg>