<svg xmlns="http://www.w3.org/2000/svg" width="64" height="64" viewBox="0 0 64 64"><path fill="#fff" d="M11.6 12.2c0-4.4 3.6-8 8-8s8 3.6 8 8-3.6 8-8 8-8-3.6-8-8zM42.8 32c0 4.4 3.6 8 8 8s8-3.6 8-8-3.6-8-8-8-8 3.6-8 8zM31.6 43.8c-4.4 0-8 3.6-8 8s3.6 8 8 8 8-3.6 8-8c.2-4.4-3.4-8-8-8zm-29-29h7.6c-.2-.8-.4-1.6-.4-2.6 0-.8.2-1.8.4-2.6H2.6C1.2 9.6 0 10.8 0 12.2s1.2 2.6 2.6 2.6zm58.8 0c1.4 0 2.6-1.2 2.6-2.6s-1.2-2.6-2.6-2.6H29.2c.2.8.4 1.6.4 2.6 0 .8-.2 1.8-.4 2.6h32.2zM2.6 49.2c-1.4 0-2.6 1.2-2.6 2.6s1.2 2.6 2.6 2.6h19.6c-.2-.8-.4-1.6-.4-2.6 0-.8.2-1.8.4-2.6H2.6zm58.8 0H41.2c.2.8.4 1.6.4 2.6 0 .8-.2 1.8-.4 2.6h20.2c1.4 0 2.6-1.2 2.6-2.6s-1.2-2.6-2.6-2.6zM2.6 34.6h38.6c-.2-.8-.4-1.6-.4-2.6s.2-1.8.4-2.6H2.6C1.2 29.4 0 30.6 0 32s1.2 2.6 2.6 2.6zm58.8-5.2h-1.2c.2.8.4 1.6.4 2.6s-.2 1.8-.4 2.6h1.2c1.4 0 2.6-1.2 2.6-2.6s-1.2-2.6-2.6-2.6z"/></svg>