<svg xmlns="http://www.w3.org/2000/svg" width="64" height="64" viewBox="0 0 64 64"><path fill="#fff" d="M15.657 60.558V22.022H2.848v38.536h12.809zM9.254 16.757c4.467 0 7.247-2.959 7.247-6.657-.083-3.781-2.78-6.658-7.162-6.658S2.093 6.319 2.093 10.1c0 3.698 2.78 6.657 7.078 6.657h.083zm13.492 43.801h12.809V39.037c0-1.152.083-2.302.422-3.126.926-2.301 3.033-4.684 6.572-4.684 4.635 0 6.489 3.534 6.489 8.714v20.616h12.808V38.461c0-11.837-6.319-17.345-14.746-17.345-6.91 0-9.944 3.862-11.629 6.493h.086V22.02H22.748c.168 3.616 0 38.536 0 38.536z"/></svg>