<svg xmlns="http://www.w3.org/2000/svg" width="64" height="64" viewBox="0 0 64 64"><path fill="#fff" d="M11.2 4h-8C1.4 4 0 5.4 0 7.2v8c0 1.8 1.4 3.2 3.2 3.2h8c1.8 0 3.2-1.4 3.2-3.2v-8C14.4 5.4 13 4 11.2 4zm0 20.8h-8C1.4 24.8 0 26.2 0 28v8c0 1.8 1.4 3.2 3.2 3.2h8c1.8 0 3.2-1.4 3.2-3.2v-8c0-1.8-1.4-3.2-3.2-3.2zm0 20.8h-8C1.4 45.6 0 47 0 48.8v8C0 58.6 1.4 60 3.2 60h8c1.8 0 3.2-1.4 3.2-3.2v-8c0-1.8-1.4-3.2-3.2-3.2zM26.4 12h35.2C63 12 64 11 64 9.6s-1-2.4-2.4-2.4H26.4c-1.4 0-2.4 1-2.4 2.4s1 2.4 2.4 2.4zm35.2 17.6H26.4c-1.4 0-2.4 1-2.4 2.4s1 2.4 2.4 2.4h35.2c1.4 0 2.4-1 2.4-2.4s-1-2.4-2.4-2.4zm0 22.4H26.4C25 52 24 53 24 54.4s1 2.4 2.4 2.4h35.2c1.4 0 2.4-1 2.4-2.4S63 52 61.6 52z"/></svg>