<svg xmlns="http://www.w3.org/2000/svg" width="64" height="64" viewBox="0 0 64 64"><path fill="#fff" d="M2.655 23.005q-.389-11.147.596-13.998.208-.467.493-.804t.726-.648.7-.492.907-.518.856-.441q7.051 0 20.012-.104t17.057-.104h4.873l2.851.026 2.929.13 2.333.311 1.685.518q.83.467 1.4 1.244t.856 1.53.389 2.074.104 2.178-.026 2.592-.026 2.566q0 10.732-1.193 16.954T55.2 47.062q-3.629 4.563-8.529 7.233t-10.006 3.24-10.369-.57-9.669-3.811-7.829-6.895-4.977-9.41q-.777-2.696-1.166-13.843zm12.002-.104q-1.348 1.452.777 4.64t5.392 6.403l2.048 2.074q1.944 1.97 2.774 2.696t2.437 1.841 2.955 1.477q.57.156 1.167.156t1.011-.052 1.011-.337.83-.389.803-.596.622-.544.622-.57l.156-.156q.467-.467 3.137-2.903t4.459-4.173 3.5-4.096 1.815-3.914q-.778-2.074-1.97-2.903t-2.618-.441-2.903 1.348-3.059 2.489-2.903 2.903-2.566 2.644-1.918 1.685q-1.4-.83-3.759-3.085t-4.251-4.251-3.811-3.318-2.851-.752q-1.296.777-2.903 2.126z"/></svg>