<svg xmlns="http://www.w3.org/2000/svg" width="64" height="64" viewBox="0 0 64 64"><path fill="#fff" d="M50.947 43.168h-.061a9.354 9.354 0 0 0-6.705 2.821l-21.734-11.87a9.266 9.266 0 0 0-.012-4.219l21.794-11.809a9.484 9.484 0 0 0 16.288-6.606 9.484 9.484 0 0 0-9.484-9.484 9.484 9.484 0 0 0-9.238 11.639L20.002 25.448a9.416 9.416 0 1 0-.001 13.178l21.782 11.88a9.416 9.416 0 1 0 9.184-7.338h-.02zm.145-36.002a4.11 4.11 0 1 1 0 8.219 4.11 4.11 0 0 1 0-8.219zM12.896 36.033a4.11 4.11 0 1 1 0-8.219 4.11 4.11 0 0 1 0 8.219zm38.196 20.863a4.11 4.11 0 1 1 0-8.219 4.11 4.11 0 0 1 0 8.219z"/></svg>