<svg xmlns="http://www.w3.org/2000/svg" width="64" height="64" viewBox="0 0 64 64"><path fill="#fff" d="M2.226 56.605V23.76q0-.928.58-1.451t1.509-.638h8.705q1.973 0 2.089 2.089v32.845q0 .813-.58 1.393t-1.509.696H4.315q-.813 0-1.393-.58t-.696-1.509zm16.481-1.625V25.268q0-1.277.812-2.089t2.205-.928h6.731l6.732-14.972Q36 5.422 37.624 5.422q2.205-.116 5.571 3.598 1.045 1.509 1.451 3.308t.348 2.844-.522 3.772-.58 3.308h14.74q1.509 0 2.263.987t.638 2.611l-4.178 25.533q-.696 2.437-3.134 4.352t-5.223 2.263H21.724q-1.277 0-2.089-.813t-.928-2.205z"/></svg>