<svg xmlns="http://www.w3.org/2000/svg" width="64" height="64" viewBox="0 0 64 64"><path fill="#fff" d="M2.217 40.068V7.218q.116-1.973 2.089-1.973h8.706q2.09.116 2.09 1.973v32.85q-.116.929-.697 1.509t-1.393.58H4.306q-.813-.116-1.451-.697t-.638-1.393zM18.7 38.675V8.843q.116-1.277.929-2.09t1.973-.813h27.279q2.09.116 4.179 1.277 3.25 1.973 4.179 5.223l4.179 25.538q.116 1.509-.755 2.554t-2.147 1.045H43.774q.464 3.483 1.277 6.965.348 5.34-5.572 9.402-1.161.813-2.554.348-1.161-.348-1.857-1.741l-6.617-14.974h-6.849q-1.277-.116-2.089-.929t-.813-1.973z"/></svg>