<svg xmlns="http://www.w3.org/2000/svg" width="64" height="64" viewBox="0 0 64 64"><path fill="#fff" d="M61.476 14.224a25.539 25.539 0 0 1-6.983 1.814c2.539-1.451 4.444-3.718 5.351-6.53-2.358 1.36-4.898 2.358-7.709 2.812-2.177-2.267-5.351-3.718-8.797-3.718-6.711 0-12.062 5.26-12.062 11.79 0 .907.091 1.814.272 2.721-10.067-.453-18.955-5.079-24.941-12.244-.998 1.723-1.633 3.718-1.633 5.895 0 4.081 2.177 7.709 5.351 9.795-1.995-.091-3.809-.635-5.442-1.451v.181c0 5.714 4.172 10.43 9.704 11.518-.998.272-2.086.453-3.174.453-.816 0-1.542-.091-2.267-.181 1.542 4.625 5.986 8.072 11.337 8.163-4.172 3.174-9.342 4.988-15.055 4.988-.998 0-1.905-.091-2.902-.181 5.351 3.356 11.7 5.26 18.502 5.26 22.22 0 34.373-17.867 34.373-33.466v-1.542c2.449-1.633 4.444-3.718 6.077-6.077z"/></svg>