<svg xmlns="http://www.w3.org/2000/svg" width="64" height="64" viewBox="0 0 64 64"><path fill="#fff" d="M61.6 19c-.8-.6-1.8-.8-2.6-.8s-1.6.2-2.4.6L48 23v-2.6c0-4.2-3.4-7.8-7.8-7.8H7.8c-4.4.2-7.8 3.6-7.8 7.8V46c0 4.2 3.4 7.8 7.8 7.8h32.6c4.2 0 7.8-3.4 7.8-7.8v-2.6l8.4 4.4c.8.4 1.6.6 2.4.6 1 0 1.8-.2 2.6-.8 1.6-1 2.4-2.6 2.4-4.4V23.4c0-1.8-1-3.6-2.4-4.4zM42.8 46c0 1.4-1.2 2.6-2.6 2.6H7.8c-1.4 0-2.6-1.2-2.6-2.6V20.4c0-1.4 1.2-2.6 2.6-2.6h32.6c1.4 0 2.6 1.2 2.6 2.6V46zm16-2.8l-10-5.2v-9.6l10-5.2v20z"/></svg>