<svg xmlns="http://www.w3.org/2000/svg" width="64" height="64" viewBox="0 0 64 64"><path fill="#fff" d="M60.945 19.705c0-5.157-3.793-9.305-8.48-9.305-6.348-.298-12.822-.412-19.434-.412h-2.062c-6.6 0-13.086.115-19.434.412-4.675 0-8.468 4.171-8.468 9.327a167.291 167.291 0 0 0-.401 12.238c-.011 4.079.115 8.159.39 12.25 0 5.157 3.793 9.339 8.468 9.339 6.669.309 13.51.447 20.465.435 6.967.023 13.785-.115 20.465-.435 4.687 0 8.48-4.182 8.48-9.339.275-4.091.401-8.17.39-12.261a168.36 168.36 0 0 0-.378-12.25zm-34.56 23.502V20.69L43 31.943 26.385 43.207z"/></svg>