<svg xmlns="http://www.w3.org/2000/svg" width="397.3" height="107.7" viewBox="0 0 397.29 107.66"><path d="M11.6 93.9h-4v10.4H6V93.9H2v-1.4h9.6v1.4zm8 6.4c0 2.4-1.8 4.2-4.3 4.2-2.4 0-4.3-1.8-4.3-4.2 0-2.4 1.8-4.2 4.3-4.2s4.3 1.8 4.3 4.2zm-7.1 0c0 1.7 1.2 2.9 2.8 2.9 1.6 0 2.8-1.2 2.8-2.9s-1.2-2.9-2.8-2.9c-1.5 0-2.8 1.2-2.8 2.9zM28 97.4v-5.2h1.4v12.2H28v-1.1c-.6.8-1.6 1.2-2.8 1.2-2.3 0-4-1.8-4-4.2s1.8-4.2 4-4.2c1.2 0 2.1.5 2.8 1.3zm-5.5 2.9c0 1.6 1.1 2.9 2.8 2.9 1.6 0 2.8-1.2 2.8-2.9 0-1.6-1.1-2.9-2.8-2.9-1.7 0-2.8 1.3-2.8 2.9zm17.2 4h-1.4v-1.1c-.6.8-1.6 1.2-2.8 1.2-2.3 0-4-1.8-4-4.2s1.8-4.2 4-4.2c1.3 0 2.2.5 2.8 1.3v-1.1h1.4v8.1zm-6.9-4c0 1.6 1.1 2.9 2.8 2.9 1.6 0 2.8-1.2 2.8-2.9 0-1.6-1.1-2.9-2.8-2.9-1.7 0-2.8 1.3-2.8 2.9zm10.5 7.5h-1.5l3-5.2-3.8-6.3h1.6l2.9 4.9 2.8-4.9h1.5l-6.5 11.5zM53 92.1l-.9 4.4h-1.2l.5-4.4H53zm6.8 6c-.5-.3-1.5-.7-2.6-.7s-1.8.5-1.8 1.2c0 .6.6.9 1.6 1.1l.9.1c1.7.2 2.7.9 2.7 2.3 0 1.5-1.4 2.5-3.6 2.5-1 0-2.3-.2-3.4-1l.6-1c.6.5 1.4.9 2.8.9 1.3 0 2.1-.4 2.1-1.2 0-.6-.5-1-1.6-1.1l-.9-.1c-1.8-.2-2.7-1-2.7-2.3 0-1.5 1.3-2.5 3.2-2.5 1.3 0 2.4.3 3.2.9l-.5.9zm13.3-.7v-5.2h1.4v12.2h-1.4v-1.1c-.6.8-1.6 1.2-2.8 1.2-2.3 0-4-1.8-4-4.2s1.8-4.2 4-4.2c1.2 0 2.2.5 2.8 1.3zm-5.4 2.9c0 1.6 1.1 2.9 2.8 2.9 1.6 0 2.8-1.2 2.8-2.9 0-1.6-1.1-2.9-2.8-2.9-1.7 0-2.8 1.3-2.8 2.9zm17.1 4h-1.4v-1.1c-.6.8-1.6 1.2-2.8 1.2-2.3 0-4-1.8-4-4.2s1.8-4.2 4-4.2c1.3 0 2.2.5 2.8 1.3v-1.1h1.4v8.1zm-6.8-4c0 1.6 1.1 2.9 2.8 2.9 1.6 0 2.8-1.2 2.8-2.9 0-1.6-1.1-2.9-2.8-2.9-1.7 0-2.8 1.3-2.8 2.9zm14.9-2.7h-3.4v3.9c0 1.2.6 1.7 1.5 1.7.6 0 1.2-.2 1.6-.5l.7 1c-.6.4-1.4.8-2.4.8-1.7 0-2.8-1-2.8-3v-3.9h-1.7v-1.3h1.7v-2.5h1.4v2.5h3.4v1.3zm9.6 6.7h-1.4v-1.1c-.6.8-1.6 1.2-2.8 1.2-2.3 0-4-1.8-4-4.2s1.8-4.2 4-4.2c1.3 0 2.2.5 2.8 1.3v-1.1h1.4v8.1zm-6.8-4c0 1.6 1.1 2.9 2.8 2.9 1.6 0 2.8-1.2 2.8-2.9 0-1.6-1.1-2.9-2.8-2.9-1.7 0-2.8 1.3-2.8 2.9zm11.4 3c0 .6-.5 1.2-1.2 1.2-.6 0-1.2-.5-1.2-1.2 0-.6.5-1.2 1.2-1.2.7.1 1.2.6 1.2 1.2zm14.7-9.4h-4v10.4h-1.5V93.9h-4v-1.4h9.6v1.4zm8.1 6.4c0 2.4-1.8 4.2-4.3 4.2-2.4 0-4.3-1.8-4.3-4.2 0-2.4 1.8-4.2 4.3-4.2s4.3 1.8 4.3 4.2zm-7.1 0c0 1.7 1.2 2.9 2.8 2.9 1.6 0 2.8-1.2 2.8-2.9s-1.2-2.9-2.8-2.9c-1.6 0-2.8 1.2-2.8 2.9zm22.5-1v5h-1.4v-4.6c0-1.5-.8-2.4-2.2-2.4-1.3 0-2.4.9-2.4 2.4v4.5h-1.4v-4.6c0-1.5-.8-2.4-2.2-2.4-1.3 0-2.4.9-2.4 2.4v4.5H132v-8h1.4v1.1c.7-.9 1.7-1.2 2.6-1.2 1.4 0 2.4.6 3 1.6.7-1.2 1.9-1.6 3-1.6 1.9.1 3.3 1.4 3.3 3.3zm10.5 1c0 2.4-1.8 4.2-4.3 4.2-2.4 0-4.3-1.8-4.3-4.2 0-2.4 1.8-4.2 4.3-4.2s4.3 1.8 4.3 4.2zm-7.1 0c0 1.7 1.2 2.9 2.8 2.9 1.6 0 2.8-1.2 2.8-2.9s-1.2-2.9-2.8-2.9c-1.6 0-2.8 1.2-2.8 2.9zm14.3-3.9l-.3 1.4c-.4-.2-.9-.3-1.4-.3-1.2 0-2.1.9-2.1 2.4v4.5h-1.4v-8h1.4v1.1c.6-.8 1.4-1.2 2.4-1.2.5-.2 1-.1 1.4.1zm6.9 0l-.3 1.4c-.4-.2-.9-.3-1.4-.3-1.2 0-2.1.9-2.1 2.4v4.5h-1.4v-8h1.4v1.1c.6-.8 1.4-1.2 2.4-1.2.5-.2.9-.1 1.4.1zm9.2 3.9c0 2.4-1.8 4.2-4.3 4.2-2.4 0-4.3-1.8-4.3-4.2 0-2.4 1.8-4.2 4.3-4.2s4.3 1.8 4.3 4.2zm-7.1 0c0 1.7 1.2 2.9 2.8 2.9 1.6 0 2.8-1.2 2.8-2.9s-1.2-2.9-2.8-2.9c-1.6 0-2.8 1.2-2.8 2.9zm17.9 2.6l2.3-6.6h1.4l-2.9 8H189l-2.3-6.5-2.3 6.5h-1.6l-2.9-8h1.5l2.3 6.6 2.3-6.6h1.6l2.3 6.6zm7.3-10.8l-.9 4.4H195l.5-4.4h1.7zm6.8 6c-.5-.3-1.5-.7-2.6-.7s-1.8.5-1.8 1.2c0 .6.6.9 1.6 1.1l.9.1c1.7.2 2.7.9 2.7 2.3 0 1.5-1.4 2.5-3.6 2.5-1 0-2.3-.2-3.4-1l.6-1c.6.5 1.4.9 2.8.9 1.3 0 2.1-.4 2.1-1.2 0-.6-.5-1-1.6-1.1l-.9-.1c-1.8-.2-2.7-1-2.7-2.3 0-1.5 1.3-2.5 3.2-2.5 1.3 0 2.4.3 3.2.9l-.5.9zm8.4-.8c.7-.9 1.7-1.2 2.6-1.2 2 0 3.4 1.3 3.4 3.2v5H217v-4.6c0-1.5-.8-2.4-2.2-2.4-1.3 0-2.4.9-2.4 2.4v4.5H211V92.1h1.4v5.2zm15.7 3v.5h-6.3c.2 1.7 1.4 2.5 2.7 2.5.9 0 1.8-.4 2.5-1l.7.9c-1 .9-2.1 1.2-3.3 1.2-2.4 0-4.1-1.7-4.1-4.2s1.7-4.2 4-4.2c2.2.1 3.8 1.8 3.8 4.3zm-6.3-.6h4.9c-.2-1.4-1.1-2.3-2.4-2.3-1.4 0-2.3.9-2.5 2.3zm16 4.6h-1.4v-1.1c-.6.8-1.6 1.2-2.8 1.2-2.3 0-4-1.8-4-4.2s1.8-4.2 4-4.2c1.3 0 2.2.5 2.8 1.3v-1.1h1.4v8.1zm-6.8-4c0 1.6 1.1 2.9 2.8 2.9 1.6 0 2.8-1.2 2.8-2.9 0-1.6-1.1-2.9-2.8-2.9-1.7 0-2.8 1.3-2.8 2.9zm10.9 4h-1.4V92.1h1.4v12.2zm8.1-6.7h-3.4v3.9c0 1.2.6 1.7 1.5 1.7.6 0 1.2-.2 1.6-.5l.7 1c-.6.4-1.4.8-2.4.8-1.7 0-2.8-1-2.8-3v-3.9h-1.7v-1.3h1.7v-2.5h1.4v2.5h3.4v1.3zm3.4-.3c.7-.9 1.7-1.2 2.6-1.2 2 0 3.4 1.3 3.4 3.2v5H258v-4.6c0-1.5-.8-2.4-2.2-2.4-1.3 0-2.4.9-2.4 2.4v4.5H252V92.1h1.4v5.2zm15.2.1l-.9.9c-.6-.6-1.3-.9-2.1-.9-1.6 0-2.7 1.2-2.7 2.9s1.2 2.9 2.7 2.9c.9 0 1.6-.4 2.2-.9l.9 1c-.7.8-1.8 1.3-3 1.3-2.5 0-4.2-1.8-4.2-4.2 0-2.4 1.7-4.2 4.2-4.2 1.1-.1 2.1.4 2.9 1.2zm9.3 6.9h-1.4v-1.1c-.6.8-1.6 1.2-2.8 1.2-2.3 0-4-1.8-4-4.2s1.8-4.2 4-4.2c1.3 0 2.2.5 2.8 1.3v-1.1h1.4v8.1zm-6.8-4c0 1.6 1.1 2.9 2.8 2.9 1.6 0 2.8-1.2 2.8-2.9 0-1.6-1.1-2.9-2.8-2.9-1.7 0-2.8 1.3-2.8 2.9zm14.7-3.9l-.3 1.4c-.4-.2-.9-.3-1.4-.3-1.2 0-2.1.9-2.1 2.4v4.5h-1.4v-8h1.4v1.1c.6-.8 1.4-1.2 2.4-1.2.5-.2 1-.1 1.4.1zm8.5 3.9v.5H288c.2 1.7 1.4 2.5 2.7 2.5.9 0 1.8-.4 2.5-1l.7.9c-1 .9-2.1 1.2-3.3 1.2-2.4 0-4.1-1.7-4.1-4.2s1.7-4.2 4-4.2c2.2.1 3.8 1.8 3.8 4.3zm-6.4-.6h4.9c-.2-1.4-1.1-2.3-2.4-2.3-1.4 0-2.2.9-2.5 2.3zm10.2 3.6c0 .6-.5 1.2-1.2 1.2-.6 0-1.2-.5-1.2-1.2 0-.6.5-1.2 1.2-1.2.7.1 1.2.6 1.2 1.2z" fill="#626066" class="tagline"/><path fill="none" stroke="#5c2c81" stroke-width="3.1" d="M214.63 40.13l37.85-13.11 37.85 13.11 43.35-33.34" stroke-linecap="round" stroke-linejoin="round" class="dots graph"/><path d="M219.63 40.59a4.84 4.84 0 0 1-5 4.88 4.79 4.79 0 0 1-4.89-4.88 4.84 4.84 0 0 1 4.89-5 4.9 4.9 0 0 1 5 5zm-1.41 43.13h-7V51.66h7v32.06zm35.44-20.14v20.14h-7V65.88c0-5.39-2.78-8.4-7.46-8.4-4.52 0-8.3 3-8.3 8.47v17.77h-7V51.66h7v3.92c2.58-3.78 6.56-4.75 9.84-4.75 7.54 0 12.92 5.25 12.92 12.75zm27.11-3.89a20.68 20.68 0 0 0-9.9-2.69c-3.81 0-6.06 1.54-6.06 3.81s2.34 2.88 5.29 3.31l3.31.5c7 1 11.14 4 11.14 9.47 0 6.16-5.35 10.47-14.59 10.47-3.31 0-9.07-.64-13.75-4.12l3.25-5.25c2.31 1.77 5.35 3.28 10.57 3.28 4.79 0 7.29-1.51 7.29-3.92 0-1.81-1.74-3-5.55-3.55l-3.35-.44c-7.09-1-10.87-4.25-10.87-9.4 0-6.36 5.09-10.27 13.25-10.27a24.35 24.35 0 0 1 13 3.38zm15.09-19.1a4.84 4.84 0 0 1-5 4.88 4.79 4.79 0 0 1-4.86-4.88 4.84 4.84 0 0 1 4.88-5 4.9 4.9 0 0 1 4.98 5zm-1.41 43.13h-7V51.66h7v32.06zm30.19-28.21v-3.85h7v29.82c0 10.07-6.49 16.26-17.2 16.26-4.79 0-10-1.3-13.42-3.71l2.54-5.92a21 21 0 0 0 10.88 3.25c6.56 0 10.17-3.61 10.17-9.57V79.2c-2.41 3.08-6 4.68-10.67 4.68-7.33 0-14.86-6.16-14.86-16.53s7.56-16.52 14.92-16.52c4.62 0 8.23 1.64 10.64 4.68zm-18.33 11.85c0 5.39 3.55 9.94 9.47 9.94 5.66 0 9.47-4.32 9.47-9.94s-3.81-9.94-9.47-9.94c-5.93 0-9.47 4.52-9.47 9.94zm39.35-11.88a11.44 11.44 0 0 1 9.77-4.65c7.63 0 13 5.25 13 12.75v20.14h-7V65.88c0-5.39-2.78-8.4-7.46-8.4-4.52 0-8.3 3-8.3 8.47v17.77h-7V35.54h7v19.94zM395.25 58H383v14c0 4.32 2.28 6 5.09 6a12.84 12.84 0 0 0 6.46-2.17l2.78 5.59a17.31 17.31 0 0 1-9.84 3.18c-7.26 0-11.51-3.92-11.51-12.45V58h-6.39v-6.34h6.39V42h7v9.71h12.28V58z" fill="#799b3e" class="athena wordmark"/><path d="M33.09 83.72h-7v-3.85A12.16 12.16 0 0 1 16 84.56c-9 0-16-7.06-16-16.87s7.06-16.86 16-16.86a12.19 12.19 0 0 1 10.1 4.71v-3.88h7v32.06zm-25.9-16C7.2 73.31 10.84 78 16.87 78c5.79 0 9.67-4.42 9.67-10.27s-3.88-10.27-9.67-10.27c-6.03-.04-9.67 4.61-9.67 10.23zM61.91 58H49.63v14c0 4.32 2.28 6 5.09 6a12.84 12.84 0 0 0 6.46-2.17L64 81.38a17.31 17.31 0 0 1-9.84 3.18c-7.26 0-11.51-3.92-11.51-12.45V58h-6.44v-6.34h6.39V42h7v9.71h12.31V58zm11.55-2.52a11.44 11.44 0 0 1 9.77-4.65c7.63 0 13 5.25 13 12.75v20.14h-7V65.88c0-5.39-2.78-8.4-7.46-8.4-4.52 0-8.3 3-8.3 8.47v17.77h-7V35.54h7v19.94zm58.22 12.18c0 .9-.07 1.81-.13 2.61h-23.69c.94 5.76 5 8.17 9.54 8.17a15.32 15.32 0 0 0 9.27-3.38l3.48 5a19.31 19.31 0 0 1-13.15 4.5c-9.6 0-16.4-6.69-16.4-16.87s6.53-16.87 16-16.87c8.89.01 15.05 6.83 15.08 16.84zm-23.79-2.71h16.63c-.77-5-3.68-7.9-8.13-7.9-4.98 0-7.76 3.21-8.5 7.9zm58.6-1.37v20.14h-7V65.88c0-5.39-2.78-8.4-7.46-8.4-4.52 0-8.3 3-8.3 8.47v17.77h-7V51.66h7v3.92c2.58-3.78 6.56-4.75 9.84-4.75 7.53 0 12.92 5.25 12.92 12.75zm37.75 20.14h-7v-3.85a12.16 12.16 0 0 1-10.07 4.69c-9 0-16-7.06-16-16.87s7.06-16.87 16-16.87a12.19 12.19 0 0 1 10.07 4.72v-3.88h7v32.06zm-25.9-16C178.34 73.31 182 78 188 78c5.79 0 9.67-4.42 9.67-10.27s-3.88-10.31-9.67-10.31c-6 0-9.66 4.65-9.66 10.27z" fill="#5c2c81" class="insight wordmark"/><g class="graph lines"><path fill="#f3c317" d="M257.7 26.9a5.22 5.22 0 1 1-5.22-5.22 5.22 5.22 0 0 1 5.22 5.22m81.2-20.11a5.22 5.22 0 1 1-5.22-5.22 5.22 5.22 0 0 1 5.22 5.22"/><circle cx="214.6" cy="40.1" r="5.2" fill="none" stroke="#5c2c81" stroke-width="3.1" stroke-linecap="round" stroke-linejoin="round"/><circle cx="290.3" cy="40.1" r="5.2" fill="none" stroke="#5c2c81" stroke-width="3.1" stroke-linecap="round" stroke-linejoin="round"/><circle cx="252.5" cy="26.9" r="5.2" fill="none" stroke="#5c2c81" stroke-width="3.1" stroke-linecap="round" stroke-linejoin="round"/><circle cx="333.7" cy="6.8" r="5.2" fill="none" stroke="#5c2c81" stroke-width="3.1" stroke-linecap="round" stroke-linejoin="round"/></g></svg>