<svg xmlns="http://www.w3.org/2000/svg" viewBox="0 0 110.656 86.78"><path fill="#fff" d="M48.522 59.57a17.157 17.157 0 0 0-4.032-6.55 20.064 20.064 0 0 0-7.82-4.82 37.985 37.985 0 0 0-12.53-1.73h-6.95a37.693 37.693 0 0 1 9.184-21.88q7.942-9.03 21.968-15.82L42.89-.01a81.81 81.81 0 0 0-30.3 22.87Q.01 37.935.01 52.77q0 15.96 7.31 24.98t20.945 9.02a21.41 21.41 0 0 0 15.06-5.93q6.378-5.94 6.38-13.85a23.676 23.676 0 0 0-1.183-7.42zm60.945 0a17.145 17.145 0 0 0-4.032-6.55 20.064 20.064 0 0 0-7.82-4.82 37.985 37.985 0 0 0-12.53-1.73h-6.95a37.685 37.685 0 0 1 9.184-21.88q7.94-9.03 21.967-15.82l-5.453-8.78a81.817 81.817 0 0 0-30.3 22.87q-12.58 15.075-12.58 29.91 0 15.96 7.312 24.98t20.944 9.02a21.41 21.41 0 0 0 15.06-5.93q6.38-5.94 6.38-13.85a23.676 23.676 0 0 0-1.183-7.42z" class="quote-mark"/></svg>