<svg version="1" xmlns="http://www.w3.org/2000/svg" width="560" height="560" viewBox="0 0 420.000000 420.000000"><path d="M363.5 35.4c-17.6 4.4-30.9 19.2-33.8 37.5-2 13 2.4 27.4 11.3 37.4l4.3 4.8-14.4 29.2c-7.8 16.1-21.4 43.6-30 61.1l-15.7 32-10.4.1c-11.9.1-18 2.1-26.9 8.4l-5.4 3.8-41.5-26.2c-40.6-25.7-41.5-26.3-41-29.1.3-1.6.5-7.9.5-13.9 0-10.3-.2-11.4-3.2-17.8-13.7-28.9-51.7-35.6-73.9-13-17.1 17.4-17.2 46.1-.2 63.7l4.9 5.1L71 257l-17.1 38.5-6.9-.3C21.8 294 .1 314.5 0 339.7c0 12.6 5.7 26.1 14.3 33.9 29.9 26.8 76.5 6.7 76.7-33.1 0-12-4.2-22.5-12.8-31.7-3.7-4-4.3-5.1-3.5-7.1.4-1.4 8-18.6 16.8-38.5l16-36 9.5-.4c12-.6 18.3-2.9 28.5-10.3 1.9-1.3 4.9.3 43.8 24.8l41.8 26.2-.8 5c-2.2 13.7.7 27.7 7.6 38.1 9.2 13.8 32.1 21 49.7 15.6 13.1-4 22-11.6 28.1-24 3.4-6.8 3.8-8.4 4.1-17.3.4-7.9 0-11.1-1.7-16.6-2.1-7.2-8.7-18.4-11.9-20.4-1.8-1.1 0-5.2 28.2-62.4l30.1-61.1 7 .4c13.4.8 24.8-3.2 34.1-12 9.7-9.1 14.4-20.1 14.4-33.3 0-16.7-8.4-31.2-23-39.8-9.1-5.3-22.5-7-33.5-4.3z"/></svg>